<?xml version="1.0" encoding="iso-8859-1"?>
<!-- Generator: Adobe Illustrator 19.0.0, SVG Export Plug-In . SVG Version: 6.00 Build 0)  -->
<svg version="1.1" id="Capa_1" xmlns="http://www.w3.org/2000/svg" xmlns:xlink="http://www.w3.org/1999/xlink" x="0px" y="0px"
	 viewBox="0 0 497.371 497.371" style="enable-background:new 0 0 497.371 497.371;" xml:space="preserve">
<path style="fill:#FFCA19;" d="M472.869,425.326l-67.291-67.291l-46.811,46.811l67.291,67.291c13.166,13.166,33.646,13.166,46.811,0
	l0,0C486.034,458.971,486.034,438.491,472.869,425.326z"/>
<circle style="fill:#C0D0D6;" cx="206.629" cy="205.897" r="191.634"/>
<g style="opacity:0.1;">
	<path style="fill:#030303;" d="M389.486,145.92c-73.143-42.423-168.229-32.183-231.131,30.72
		c-54.126,52.663-70.217,128.731-48.274,194.56c-14.629-8.777-27.794-19.017-39.497-30.72c-74.606-74.606-74.606-196.023,0-270.629
		s196.023-74.606,270.629,0C364.617,91.794,379.246,118.126,389.486,145.92z"/>
</g>
<path d="M60.343,352.183c-80.457-80.457-80.457-210.651,0-291.109s210.651-80.457,291.109,0
	c39.497,39.497,59.977,90.697,59.977,146.286s-21.943,106.789-59.977,146.286C272.457,432.64,140.8,432.64,60.343,352.183z
	 M80.823,80.091c-68.754,68.754-68.754,181.394,0,250.149s181.394,68.754,250.149,0s68.754-181.394,0-250.149
	S151.04,11.337,80.823,80.091z"/>
<path d="M379.246,394.606c-4.389,0-7.314-1.463-10.24-4.389l-36.571-36.571c-5.851-5.851-5.851-14.629,0-20.48
	c5.851-5.851,14.629-5.851,20.48,0l36.571,36.571c5.851,5.851,5.851,14.629,0,20.48C386.56,393.143,383.634,394.606,379.246,394.606
	z"/>
<path d="M415.817,482.377l-67.291-67.291c-2.926-2.926-4.389-5.851-4.389-10.24s1.463-7.314,4.389-10.24l46.811-46.811
	c5.851-5.851,14.629-5.851,20.48,0l67.291,67.291c19.017,19.017,19.017,48.274,0,67.291
	C465.554,501.394,434.834,501.394,415.817,482.377z M379.246,404.846l57.051,57.051c7.314,7.314,19.017,7.314,26.331,0
	c7.314-7.314,7.314-19.017,0-26.331l-57.051-57.051L379.246,404.846z"/>
<path style="fill:#F15E75;" d="M345.6,224.914V186.88l-40.96-7.314c-2.926-8.777-5.851-17.554-10.24-24.869l24.869-33.646
	L291.474,94.72l-33.646,24.869c-7.314-4.389-16.091-7.314-24.869-10.24l-7.314-40.96h-38.034l-7.314,40.96
	c-8.777,2.926-17.554,5.851-24.869,10.24L121.783,94.72l-26.331,26.331l24.869,33.646c-4.389,7.314-7.314,16.091-10.24,24.869
	l-40.96,7.314v38.034l40.96,7.314c2.926,8.777,5.851,17.554,10.24,24.869l-24.869,33.646l26.331,26.331l33.646-24.869
	c7.314,4.389,16.091,7.314,24.869,10.24l7.314,40.96h38.034l7.314-40.96c8.777-2.926,17.554-5.851,24.869-10.24l33.646,24.869
	l26.331-26.331l-24.869-33.646c4.389-7.314,7.314-16.091,10.24-24.869L345.6,224.914z"/>
<g style="opacity:0.1;">
	<path style="fill:#030303;" d="M317.806,121.051L317.806,121.051c-57.051-5.851-117.029,11.703-160.914,55.589
		c-20.48,20.48-35.109,43.886-43.886,67.291c-1.463-2.926-2.926-7.314-4.389-11.703l-40.96-7.314V186.88l40.96-7.314
		c2.926-8.777,5.851-17.554,10.24-24.869l-23.406-33.646l26.331-26.331l33.646,24.869c7.314-4.389,16.091-7.314,24.869-10.24
		l7.314-40.96h38.034l7.314,40.96c8.777,2.926,17.554,5.851,24.869,10.24l33.646-24.869L317.806,121.051z"/>
</g>
<path d="M225.646,359.497h-38.034c-7.314,0-13.166-4.389-14.629-11.703l-5.851-33.646c-2.926-1.463-7.314-2.926-10.24-4.389
	l-26.331,19.017c-5.851,4.389-13.166,2.926-19.017-1.463l-26.331-26.331c-4.389-4.389-5.851-13.166-1.463-19.017l19.017-26.331
	c-1.463-2.926-2.926-7.314-4.389-10.24l-32.183-5.851c-7.314-1.463-11.703-7.314-11.703-14.629V186.88
	c0-7.314,4.389-13.166,11.703-14.629l32.183-5.851c1.463-2.926,2.926-7.314,4.389-10.24l-19.017-26.331
	c-4.389-5.851-4.389-14.629,1.463-19.017l26.331-26.331c4.389-5.851,13.166-5.851,19.017-1.463l26.331,19.017
	c2.926-1.463,7.314-2.926,10.24-4.389l5.851-32.183c1.463-7.314,7.314-11.703,14.629-11.703h38.034
	c7.314,0,13.166,4.389,14.629,11.703l5.851,32.183c2.926,1.463,7.314,2.926,10.24,4.389l26.331-19.017
	c5.851-4.389,13.166-2.926,19.017,1.463l26.331,26.331c5.851,4.389,5.851,13.166,1.463,19.017l-19.017,26.331
	c1.463,2.926,2.926,7.314,4.389,10.24l32.183,5.851c7.314,1.463,11.703,7.314,11.703,14.629v38.034
	c0,7.314-4.389,13.166-11.703,14.629l-32.183,5.851c-1.463,2.926-2.926,7.314-4.389,10.24l19.017,26.331
	c4.389,5.851,2.926,13.166-1.463,19.017l-26.331,26.331c-4.389,4.389-13.166,5.851-19.017,1.463l-26.331-19.017
	c-2.926,1.463-7.314,2.926-10.24,4.389l-5.851,32.183C238.811,355.109,232.96,359.497,225.646,359.497z M200.777,330.24h11.703
	l4.389-29.257c1.463-5.851,5.851-10.24,10.24-11.703c7.314-1.463,14.629-4.389,20.48-8.777c4.389-2.926,11.703-2.926,16.091,0
	l24.869,17.554l8.777-8.777l-17.554-24.869c-2.926-4.389-2.926-10.24,0-16.091c4.389-5.851,7.314-13.166,8.777-20.48
	c1.463-5.851,5.851-10.24,11.703-10.24l29.257-4.389v-13.166l-29.257-4.389c-5.851-1.463-10.24-5.851-11.703-10.24
	c-1.463-7.314-4.389-14.629-8.777-20.48c-2.926-4.389-2.926-11.703,0-16.091l17.554-24.869l-8.777-8.777l-24.869,17.554
	c-4.389,2.926-10.24,2.926-16.091,0c-5.851-4.389-13.166-7.314-20.48-8.777c-5.851-1.463-10.24-5.851-10.24-11.703l-4.389-29.257
	h-13.166l-4.389,29.257c-1.463,5.851-5.851,10.24-10.24,11.703c-7.314,1.463-14.629,4.389-20.48,8.777
	c-4.389,2.926-11.703,2.926-16.091,0l-24.869-19.017l-8.777,8.777l17.554,24.869c2.926,4.389,2.926,10.24,0,16.091
	c-4.389,5.851-7.314,13.166-8.777,20.48c-1.463,5.851-5.851,10.24-11.703,10.24l-29.257,4.389v13.166l29.257,4.389
	c5.851,1.463,10.24,5.851,11.703,10.24c1.463,7.314,4.389,14.629,8.777,20.48c2.926,4.389,2.926,11.703,0,16.091l-17.554,24.869
	l8.777,8.777l24.869-17.554c4.389-2.926,10.24-2.926,16.091,0c5.851,4.389,13.166,7.314,20.48,8.777
	c5.851,1.463,10.24,5.851,10.24,11.703L200.777,330.24z"/>
<circle style="fill:#FFFFFF;" cx="206.629" cy="205.897" r="40.96"/>
<path d="M206.629,261.486c-30.72,0-55.589-24.869-55.589-55.589s24.869-55.589,55.589-55.589s55.589,24.869,55.589,55.589
	S237.349,261.486,206.629,261.486z M206.629,181.029c-14.629,0-26.331,11.703-26.331,26.331s11.703,26.331,26.331,26.331
	s26.331-11.703,26.331-26.331S221.257,181.029,206.629,181.029z"/>
<g>
</g>
<g>
</g>
<g>
</g>
<g>
</g>
<g>
</g>
<g>
</g>
<g>
</g>
<g>
</g>
<g>
</g>
<g>
</g>
<g>
</g>
<g>
</g>
<g>
</g>
<g>
</g>
<g>
</g>
</svg>
